<svg width="20" height="20" viewBox="0 0 20 20" fill="none" xmlns="http://www.w3.org/2000/svg">
<g clip-path="url(#clip0_215_145)">
<path d="M15.075 8.64167C15.8628 8.93536 16.5638 9.42295 17.1131 10.0593C17.6625 10.6957 18.0426 11.4604 18.2181 12.2826C18.3937 13.1048 18.3591 13.9579 18.1176 14.7632C17.876 15.5685 17.4353 16.2999 16.8362 16.8897C16.2371 17.4795 15.499 17.9087 14.69 18.1377C13.8811 18.3666 13.0274 18.3879 12.2081 18.1996C11.3887 18.0112 10.6301 17.6193 10.0024 17.06C9.37464 16.5008 8.89805 15.7923 8.61669 15M5.83335 5.00001H6.66669V8.33334M13.925 11.5667L14.5084 12.1583L12.1584 14.5083M11.6667 6.66667C11.6667 9.4281 9.42811 11.6667 6.66669 11.6667C3.90526 11.6667 1.66669 9.4281 1.66669 6.66667C1.66669 3.90525 3.90526 1.66667 6.66669 1.66667C9.42811 1.66667 11.6667 3.90525 11.6667 6.66667Z" stroke="#A3A3A3" stroke-width="1.5" stroke-linecap="round" stroke-linejoin="round"/>
</g>
<defs>
<clipPath id="clip0_215_145">
<rect width="20" height="20" fill="white"/>
</clipPath>
</defs>
</svg>
