<svg width="20" height="21" viewBox="0 0 20 21" fill="none" xmlns="http://www.w3.org/2000/svg">
<path d="M9.16667 12.4359H10.8333C11.2754 12.4359 11.6993 12.2603 12.0118 11.9477C12.3244 11.6352 12.5 11.2112 12.5 10.7692C12.5 10.3272 12.3244 9.90326 12.0118 9.59069C11.6993 9.27813 11.2754 9.10254 10.8333 9.10254H8.33333C7.83333 9.10254 7.41667 9.26921 7.16667 9.60254L2.5 14.1025" stroke="#A3A3A3" stroke-width="1.67" stroke-linecap="round" stroke-linejoin="round"/>
<path d="M5.83331 17.4359L7.16665 16.2692C7.41665 15.9359 7.83331 15.7692 8.33331 15.7692H11.6666C12.5833 15.7692 13.4166 15.4359 14 14.7692L17.8333 11.1026C18.1549 10.7987 18.3426 10.3795 18.3551 9.9372C18.3676 9.49493 18.2039 9.0658 17.9 8.74423C17.5961 8.42265 17.1769 8.23497 16.7346 8.22247C16.2923 8.20997 15.8632 8.37367 15.5416 8.67756L12.0416 11.9276" stroke="#A3A3A3" stroke-width="1.67" stroke-linecap="round" stroke-linejoin="round"/>
<path d="M1.66669 13.2692L6.66669 18.2692" stroke="#A3A3A3" stroke-width="1.67" stroke-linecap="round" stroke-linejoin="round"/>
<path d="M16.25 7.85256C16.8334 7.26923 17.5 6.51923 17.5 5.60256C17.5583 5.09333 17.4428 4.57936 17.1725 4.14392C16.9021 3.70849 16.4926 3.37712 16.0103 3.20351C15.5281 3.0299 15.0014 3.02423 14.5155 3.18741C14.0296 3.35058 13.6131 3.67306 13.3334 4.10256C13.0359 3.70638 12.6192 3.416 12.1446 3.27405C11.6699 3.13209 11.1622 3.14605 10.6961 3.31386C10.2299 3.48167 9.82987 3.79451 9.55461 4.20643C9.27934 4.61836 9.14338 5.10768 9.16669 5.60256C9.16669 6.60256 9.83336 7.26923 10.4167 7.93589L13.3334 10.7692L16.25 7.85256Z" stroke="#A3A3A3" stroke-width="1.67" stroke-linecap="round" stroke-linejoin="round"/>
</svg>
