<svg width="20" height="20" viewBox="0 0 20 20" fill="none" xmlns="http://www.w3.org/2000/svg">
<g clip-path="url(#clip0_215_148)">
<path d="M14.9334 11.6667L17.85 8.75C18.1592 8.40708 18.3303 7.96173 18.3303 7.5C18.3303 7.03827 18.1592 6.59292 17.85 6.25L13.6834 2.15C13.3404 1.84081 12.8951 1.66968 12.4334 1.66968C11.9716 1.66968 11.5263 1.84081 11.1834 2.15L8.33335 5M5.00002 15H5.00835M8.33335 11.6667H8.34169M12.5 5H12.5084M15 7.5H15.0084M3.33335 8.33334H10C10.9205 8.33334 11.6667 9.07953 11.6667 10V16.6667C11.6667 17.5871 10.9205 18.3333 10 18.3333H3.33335C2.41288 18.3333 1.66669 17.5871 1.66669 16.6667V10C1.66669 9.07953 2.41288 8.33334 3.33335 8.33334Z" stroke="#A3A3A3" stroke-width="1.5" stroke-linecap="round" stroke-linejoin="round"/>
</g>
<defs>
<clipPath id="clip0_215_148">
<rect width="20" height="20" fill="white"/>
</clipPath>
</defs>
</svg>
