<svg width="20" height="20" viewBox="0 0 20 20" fill="none" xmlns="http://www.w3.org/2000/svg">
<path d="M3.33335 18.3333H15C15.442 18.3333 15.866 18.1577 16.1785 17.8452C16.4911 17.5326 16.6667 17.1087 16.6667 16.6667V5.83333L12.5 1.66667H5.00002C4.55799 1.66667 4.13407 1.84226 3.82151 2.15482C3.50895 2.46738 3.33335 2.89131 3.33335 3.33333V5.83333M11.6667 1.66667V5C11.6667 5.44203 11.8423 5.86595 12.1548 6.17851C12.4674 6.49107 12.8913 6.66667 13.3334 6.66667H16.6667M7.50002 15L6.25002 13.75M6.66669 11.6667C6.66669 13.0474 5.5474 14.1667 4.16669 14.1667C2.78598 14.1667 1.66669 13.0474 1.66669 11.6667C1.66669 10.286 2.78598 9.16667 4.16669 9.16667C5.5474 9.16667 6.66669 10.286 6.66669 11.6667Z" stroke="#A3A3A3" stroke-width="1.5" stroke-linecap="round" stroke-linejoin="round"/>
</svg>
