<svg width="21" height="20" viewBox="0 0 21 20" fill="none" xmlns="http://www.w3.org/2000/svg">
<path d="M17.3333 8.33334C17.3333 13.3333 10.6666 18.3333 10.6666 18.3333C10.6666 18.3333 3.99994 13.3333 3.99994 8.33334C3.99994 6.56523 4.70232 4.86954 5.95256 3.61929C7.2028 2.36905 8.8985 1.66667 10.6666 1.66667C12.4347 1.66667 14.1304 2.36905 15.3807 3.61929C16.6309 4.86954 17.3333 6.56523 17.3333 8.33334Z" stroke="#FAFAFA" stroke-width="1.5" stroke-linecap="round" stroke-linejoin="round"/>
<path d="M10.6666 10.8333C12.0473 10.8333 13.1666 9.71405 13.1666 8.33334C13.1666 6.95263 12.0473 5.83334 10.6666 5.83334C9.28589 5.83334 8.16661 6.95263 8.16661 8.33334C8.16661 9.71405 9.28589 10.8333 10.6666 10.8333Z" stroke="#FAFAFA" stroke-width="1.5" stroke-linecap="round" stroke-linejoin="round"/>
</svg>
