<svg width="20" height="20" viewBox="0 0 20 20" fill="none" xmlns="http://www.w3.org/2000/svg">
<path d="M15 6.66667V5C15 4.55798 14.8244 4.13405 14.5119 3.82149C14.1993 3.50893 13.7754 3.33334 13.3334 3.33334H3.33335C2.89133 3.33334 2.4674 3.50893 2.15484 3.82149C1.84228 4.13405 1.66669 4.55798 1.66669 5V10.8333C1.66669 11.2754 1.84228 11.6993 2.15484 12.0118C2.4674 12.3244 2.89133 12.5 3.33335 12.5H10M8.33335 15.8333V12.5333V15.1583M5.83335 15.8333H10M15 10H16.6667C17.5872 10 18.3334 10.7462 18.3334 11.6667V16.6667C18.3334 17.5871 17.5872 18.3333 16.6667 18.3333H15C14.0795 18.3333 13.3334 17.5871 13.3334 16.6667V11.6667C13.3334 10.7462 14.0795 10 15 10Z" stroke="#A3A3A3" stroke-width="1.5" stroke-linecap="round" stroke-linejoin="round"/>
</svg>
