<svg width="20" height="21" viewBox="0 0 20 21" fill="none" xmlns="http://www.w3.org/2000/svg">
<path d="M10.6917 2.58591C10.4745 2.48686 10.2387 2.43561 10 2.43561C9.76135 2.43561 9.52548 2.48686 9.30834 2.58591L2.16668 5.83591C2.0188 5.90111 1.89308 6.0079 1.80481 6.14329C1.71655 6.27867 1.66956 6.43679 1.66956 6.59841C1.66956 6.76002 1.71655 6.91814 1.80481 7.05353C1.89308 7.18891 2.0188 7.2957 2.16668 7.36091L9.31668 10.6192C9.53381 10.7183 9.76969 10.7695 10.0083 10.7695C10.247 10.7695 10.4829 10.7183 10.7 10.6192L17.85 7.36924C17.9979 7.30404 18.1236 7.19724 18.2119 7.06186C18.3001 6.92648 18.3471 6.76835 18.3471 6.60674C18.3471 6.44513 18.3001 6.287 18.2119 6.15162C18.1236 6.01624 17.9979 5.90944 17.85 5.84424L10.6917 2.58591Z" stroke="#A3A3A3" stroke-width="1.67" stroke-linecap="round" stroke-linejoin="round"/>
<path d="M18.3334 15.4776L10.6917 18.9442C10.4746 19.0433 10.2387 19.0945 10 19.0945C9.76136 19.0945 9.52549 19.0433 9.30835 18.9442L1.66669 15.4776" stroke="#A3A3A3" stroke-width="1.67" stroke-linecap="round" stroke-linejoin="round"/>
<path d="M18.3334 11.3109L10.6917 14.7776C10.4746 14.8766 10.2387 14.9279 10 14.9279C9.76136 14.9279 9.52549 14.8766 9.30835 14.7776L1.66669 11.3109" stroke="#A3A3A3" stroke-width="1.67" stroke-linecap="round" stroke-linejoin="round"/>
</svg>
