<svg width="19" height="20" viewBox="0 0 19 20" fill="none" xmlns="http://www.w3.org/2000/svg">
<path d="M17.6667 14.1V16.6C17.6676 16.8321 17.6201 17.0618 17.5271 17.2745C17.4341 17.4871 17.2978 17.678 17.1267 17.8349C16.9557 17.9918 16.7538 18.1112 16.534 18.1856C16.3141 18.26 16.0812 18.2876 15.85 18.2667C13.2857 17.988 10.8225 17.1118 8.65834 15.7083C6.64487 14.4289 4.93779 12.7218 3.65834 10.7083C2.24999 8.53435 1.37355 6.05917 1.10001 3.48334C1.07919 3.2529 1.10657 3.02064 1.18043 2.80136C1.25428 2.58208 1.37299 2.38058 1.52898 2.20969C1.68498 2.0388 1.87485 1.90227 2.0865 1.80878C2.29816 1.71529 2.52696 1.66689 2.75834 1.66668H5.25834C5.66277 1.6627 6.05484 1.80591 6.36148 2.06962C6.66812 2.33333 6.86841 2.69955 6.92501 3.10001C7.03053 3.90006 7.22622 4.68562 7.50834 5.44168C7.62046 5.73995 7.64473 6.0641 7.57827 6.37574C7.5118 6.68738 7.3574 6.97344 7.13334 7.20001L6.07501 8.25834C7.26131 10.3446 8.98872 12.072 11.075 13.2583L12.1333 12.2C12.3599 11.976 12.646 11.8216 12.9576 11.7551C13.2692 11.6886 13.5934 11.7129 13.8917 11.825C14.6477 12.1071 15.4333 12.3028 16.2333 12.4083C16.6381 12.4655 17.0078 12.6693 17.2721 12.9813C17.5364 13.2932 17.6768 13.6913 17.6667 14.1Z" stroke="#FAFAFA" stroke-width="1.5" stroke-linecap="round" stroke-linejoin="round"/>
</svg>
