<svg width="20" height="21" viewBox="0 0 20 21" fill="none" xmlns="http://www.w3.org/2000/svg">
<path d="M13.3334 18.2692V16.6026C13.3334 15.7185 12.9822 14.8707 12.357 14.2455C11.7319 13.6204 10.8841 13.2692 10 13.2692H5.00002C4.11597 13.2692 3.26812 13.6204 2.643 14.2455C2.01788 14.8707 1.66669 15.7185 1.66669 16.6026V18.2692" stroke="#F5F5F5" stroke-width="1.67" stroke-linecap="round" stroke-linejoin="round"/>
<path d="M7.50002 9.93589C9.34097 9.93589 10.8334 8.44351 10.8334 6.60256C10.8334 4.76161 9.34097 3.26923 7.50002 3.26923C5.65907 3.26923 4.16669 4.76161 4.16669 6.60256C4.16669 8.44351 5.65907 9.93589 7.50002 9.93589Z" stroke="#F5F5F5" stroke-width="1.67" stroke-linecap="round" stroke-linejoin="round"/>
<path d="M18.3333 18.2692V16.6026C18.3328 15.864 18.0869 15.1465 17.6345 14.5628C17.182 13.9791 16.5484 13.5622 15.8333 13.3776" stroke="#F5F5F5" stroke-width="1.67" stroke-linecap="round" stroke-linejoin="round"/>
<path d="M13.3333 3.37756C14.0503 3.56115 14.6858 3.97815 15.1397 4.56282C15.5935 5.1475 15.8398 5.86659 15.8398 6.60673C15.8398 7.34687 15.5935 8.06596 15.1397 8.65064C14.6858 9.23531 14.0503 9.65231 13.3333 9.8359" stroke="#F5F5F5" stroke-width="1.67" stroke-linecap="round" stroke-linejoin="round"/>
</svg>
