<svg width="20" height="20" viewBox="0 0 20 20" fill="none" xmlns="http://www.w3.org/2000/svg">
<path d="M6.66669 17.5H16.6667C17.1087 17.5 17.5326 17.3244 17.8452 17.0118C18.1578 16.6993 18.3334 16.2754 18.3334 15.8333V14.1667H8.33335V15.8333C8.33335 16.2754 8.15776 16.6993 7.8452 17.0118C7.53264 17.3244 7.10871 17.5 6.66669 17.5ZM6.66669 17.5C6.22466 17.5 5.80074 17.3244 5.48818 17.0118C5.17562 16.6993 5.00002 16.2754 5.00002 15.8333V4.16667C5.00002 3.72464 4.82443 3.30072 4.51187 2.98816C4.1993 2.67559 3.77538 2.5 3.33335 2.5M3.33335 2.5C2.89133 2.5 2.4674 2.67559 2.15484 2.98816C1.84228 3.30072 1.66669 3.72464 1.66669 4.16667V6.66667H5.00002M3.33335 2.5H14.1667C14.6087 2.5 15.0326 2.67559 15.3452 2.98816C15.6578 3.30072 15.8334 3.72464 15.8334 4.16667V14.1667M12.5 6.66667H8.33335M12.5 10H8.33335" stroke="#A3A3A3" stroke-width="1.5" stroke-linecap="round" stroke-linejoin="round"/>
</svg>
