<svg width="20" height="21" viewBox="0 0 20 21" fill="none" xmlns="http://www.w3.org/2000/svg">
<path d="M13.3333 11.6026L17.6858 14.5042C17.7486 14.546 17.8215 14.5699 17.8967 14.5735C17.972 14.5771 18.0469 14.5602 18.1133 14.5247C18.1798 14.4891 18.2353 14.4362 18.2741 14.3715C18.3128 14.3069 18.3333 14.2329 18.3333 14.1576V7.32756C18.3333 7.25424 18.314 7.18222 18.2773 7.11876C18.2406 7.05531 18.1878 7.00266 18.1242 6.96614C18.0606 6.92962 17.9885 6.91052 17.9152 6.91077C17.8419 6.91102 17.77 6.93061 17.7066 6.96756L13.3333 9.51922" stroke="#A3A3A3" stroke-width="1.67" stroke-linecap="round" stroke-linejoin="round"/>
<path d="M11.6667 5.76922H3.33335C2.41288 5.76922 1.66669 6.51542 1.66669 7.43589V14.1026C1.66669 15.023 2.41288 15.7692 3.33335 15.7692H11.6667C12.5872 15.7692 13.3334 15.023 13.3334 14.1026V7.43589C13.3334 6.51542 12.5872 5.76922 11.6667 5.76922Z" stroke="#A3A3A3" stroke-width="1.67" stroke-linecap="round" stroke-linejoin="round"/>
</svg>
